<mxfile host="app.diagrams.net" modified="2024-02-27T05:37:04.788Z" agent="Mozilla/5.0 (Windows NT 10.0; Win64; x64) AppleWebKit/537.36 (KHTML, like Gecko) Chrome/122.0.0.0 Safari/537.36" etag="ZyL1V1iROQ3GBhJoAFUe" version="23.1.7" type="github">
  <diagram id="8F4zbxn3im7hMf3nRt4b" name="Trang-1">
    <mxGraphModel dx="629" dy="2150" grid="1" gridSize="10" guides="1" tooltips="1" connect="1" arrows="1" fold="1" page="1" pageScale="1" pageWidth="827" pageHeight="1169" math="0" shadow="0">
      <root>
        <mxCell id="0" />
        <mxCell id="1" parent="0" />
        <mxCell id="zoPng6HbuZyHixyTHXBz-1" value="&lt;b&gt;Data Collection&lt;/b&gt;" style="rounded=1;whiteSpace=wrap;html=1;fontSize=20;" vertex="1" parent="1">
          <mxGeometry x="60" y="220" width="290" height="50" as="geometry" />
        </mxCell>
        <mxCell id="zoPng6HbuZyHixyTHXBz-2" value="" style="endArrow=none;html=1;rounded=1;exitX=1;exitY=0.5;exitDx=0;exitDy=0;" edge="1" parent="1" source="zoPng6HbuZyHixyTHXBz-1">
          <mxGeometry width="50" height="50" relative="1" as="geometry">
            <mxPoint x="500" y="360" as="sourcePoint" />
            <mxPoint x="1110" y="245" as="targetPoint" />
          </mxGeometry>
        </mxCell>
        <mxCell id="zoPng6HbuZyHixyTHXBz-3" value="Library update&amp;nbsp;&lt;br style=&quot;font-size: 20px;&quot;&gt;Dspace" style="text;html=1;align=left;verticalAlign=middle;whiteSpace=wrap;rounded=1;fontSize=20;" vertex="1" parent="1">
          <mxGeometry x="377" y="190" width="140" height="40" as="geometry" />
        </mxCell>
        <mxCell id="zoPng6HbuZyHixyTHXBz-10" value="Other Data Sources" style="text;html=1;align=left;verticalAlign=middle;whiteSpace=wrap;rounded=0;fontSize=16;" vertex="1" parent="1">
          <mxGeometry x="440" width="90" height="40" as="geometry" />
        </mxCell>
        <mxCell id="zoPng6HbuZyHixyTHXBz-12" value="Academic Materials" style="text;html=1;align=left;verticalAlign=middle;whiteSpace=wrap;rounded=0;fontSize=16;" vertex="1" parent="1">
          <mxGeometry x="440" y="100" width="90" height="40" as="geometry" />
        </mxCell>
        <mxCell id="zoPng6HbuZyHixyTHXBz-17" value="" style="group" vertex="1" connectable="0" parent="1">
          <mxGeometry x="430" y="20" height="100" as="geometry" />
        </mxCell>
        <mxCell id="zoPng6HbuZyHixyTHXBz-4" value="" style="endArrow=none;html=1;rounded=1;jumpSize=1;curved=0;endSize=1;startSize=2;strokeWidth=1;" edge="1" parent="zoPng6HbuZyHixyTHXBz-17">
          <mxGeometry width="50" height="50" relative="1" as="geometry">
            <mxPoint y="140" as="sourcePoint" />
            <mxPoint x="10" as="targetPoint" />
            <Array as="points">
              <mxPoint />
            </Array>
          </mxGeometry>
        </mxCell>
        <mxCell id="zoPng6HbuZyHixyTHXBz-16" value="" style="endArrow=none;html=1;rounded=1;jumpSize=1;curved=0;endSize=1;startSize=2;strokeWidth=1;" edge="1" parent="zoPng6HbuZyHixyTHXBz-17">
          <mxGeometry width="50" height="50" relative="1" as="geometry">
            <mxPoint y="130" as="sourcePoint" />
            <mxPoint x="10" y="100" as="targetPoint" />
            <Array as="points">
              <mxPoint y="100" />
            </Array>
          </mxGeometry>
        </mxCell>
        <mxCell id="zoPng6HbuZyHixyTHXBz-21" value="" style="group" vertex="1" connectable="0" parent="1">
          <mxGeometry x="530" y="-22.5" height="85" as="geometry" />
        </mxCell>
        <mxCell id="zoPng6HbuZyHixyTHXBz-15" value="" style="endArrow=none;html=1;rounded=1;" edge="1" parent="zoPng6HbuZyHixyTHXBz-21">
          <mxGeometry width="50" height="50" relative="1" as="geometry">
            <mxPoint x="-10" y="42.5" as="sourcePoint" />
            <mxPoint y="42.46" as="targetPoint" />
            <Array as="points">
              <mxPoint y="42.46" />
            </Array>
          </mxGeometry>
        </mxCell>
        <mxCell id="zoPng6HbuZyHixyTHXBz-19" value="" style="group" vertex="1" connectable="0" parent="1">
          <mxGeometry x="530" y="-22.5" height="85" as="geometry" />
        </mxCell>
        <mxCell id="zoPng6HbuZyHixyTHXBz-13" value="" style="endArrow=none;html=1;rounded=1;jumpSize=1;curved=0;endSize=1;startSize=2;strokeWidth=1;" edge="1" parent="zoPng6HbuZyHixyTHXBz-19">
          <mxGeometry width="50" height="50" relative="1" as="geometry">
            <mxPoint x="10" y="85" as="sourcePoint" />
            <mxPoint x="10" as="targetPoint" />
            <Array as="points">
              <mxPoint y="85" />
              <mxPoint />
            </Array>
          </mxGeometry>
        </mxCell>
        <mxCell id="zoPng6HbuZyHixyTHXBz-22" value="Acdemic Records" style="text;html=1;align=center;verticalAlign=middle;whiteSpace=wrap;rounded=0;fontSize=16;" vertex="1" parent="1">
          <mxGeometry x="540" y="-40" width="130" height="30" as="geometry" />
        </mxCell>
        <mxCell id="zoPng6HbuZyHixyTHXBz-23" value="Course materials" style="text;html=1;align=center;verticalAlign=middle;whiteSpace=wrap;rounded=0;fontSize=16;" vertex="1" parent="1">
          <mxGeometry x="540" width="124" height="30" as="geometry" />
        </mxCell>
        <mxCell id="zoPng6HbuZyHixyTHXBz-24" value="External Database" style="text;html=1;align=left;verticalAlign=middle;whiteSpace=wrap;rounded=0;fontSize=16;" vertex="1" parent="1">
          <mxGeometry x="540" y="50" width="60" height="30" as="geometry" />
        </mxCell>
        <mxCell id="zoPng6HbuZyHixyTHXBz-18" value="" style="endArrow=none;html=1;rounded=1;jumpSize=1;curved=0;endSize=1;startSize=2;strokeWidth=1;" edge="1" parent="1">
          <mxGeometry width="50" height="50" relative="1" as="geometry">
            <mxPoint x="530" y="35" as="sourcePoint" />
            <mxPoint x="540" y="15" as="targetPoint" />
            <Array as="points">
              <mxPoint x="530" y="15" />
            </Array>
          </mxGeometry>
        </mxCell>
        <mxCell id="zoPng6HbuZyHixyTHXBz-26" value="Data Processing" style="text;html=1;align=center;verticalAlign=middle;whiteSpace=wrap;rounded=0;fontSize=16;" vertex="1" parent="1">
          <mxGeometry x="740" y="210" width="160" height="30" as="geometry" />
        </mxCell>
        <mxCell id="zoPng6HbuZyHixyTHXBz-27" value="" style="group" vertex="1" connectable="0" parent="1">
          <mxGeometry x="710" y="370" height="100" as="geometry" />
        </mxCell>
        <mxCell id="zoPng6HbuZyHixyTHXBz-28" value="" style="endArrow=none;html=1;rounded=1;jumpSize=1;curved=0;endSize=1;startSize=2;strokeWidth=1;" edge="1" parent="zoPng6HbuZyHixyTHXBz-27">
          <mxGeometry width="50" height="50" relative="1" as="geometry">
            <mxPoint y="140" as="sourcePoint" />
            <mxPoint x="10" as="targetPoint" />
            <Array as="points">
              <mxPoint />
            </Array>
          </mxGeometry>
        </mxCell>
        <mxCell id="zoPng6HbuZyHixyTHXBz-29" value="" style="endArrow=none;html=1;rounded=1;jumpSize=1;curved=0;endSize=1;startSize=2;strokeWidth=1;" edge="1" parent="zoPng6HbuZyHixyTHXBz-27">
          <mxGeometry width="50" height="50" relative="1" as="geometry">
            <mxPoint y="130" as="sourcePoint" />
            <mxPoint x="10" y="100" as="targetPoint" />
            <Array as="points">
              <mxPoint y="100" />
            </Array>
          </mxGeometry>
        </mxCell>
        <mxCell id="zoPng6HbuZyHixyTHXBz-33" value="" style="group" vertex="1" connectable="0" parent="1">
          <mxGeometry x="610" y="410" height="100" as="geometry" />
        </mxCell>
        <mxCell id="zoPng6HbuZyHixyTHXBz-34" value="" style="endArrow=none;html=1;rounded=1;jumpSize=1;curved=0;endSize=1;startSize=2;strokeWidth=1;" edge="1" parent="zoPng6HbuZyHixyTHXBz-33">
          <mxGeometry width="50" height="50" relative="1" as="geometry">
            <mxPoint y="140" as="sourcePoint" />
            <mxPoint x="10" as="targetPoint" />
            <Array as="points">
              <mxPoint />
            </Array>
          </mxGeometry>
        </mxCell>
        <mxCell id="zoPng6HbuZyHixyTHXBz-35" value="" style="endArrow=none;html=1;rounded=1;jumpSize=1;curved=0;endSize=1;startSize=2;strokeWidth=1;" edge="1" parent="zoPng6HbuZyHixyTHXBz-33">
          <mxGeometry width="50" height="50" relative="1" as="geometry">
            <mxPoint y="130" as="sourcePoint" />
            <mxPoint x="10" y="100" as="targetPoint" />
            <Array as="points">
              <mxPoint y="100" />
            </Array>
          </mxGeometry>
        </mxCell>
        <mxCell id="zoPng6HbuZyHixyTHXBz-31" value="" style="endArrow=none;html=1;rounded=1;jumpSize=1;curved=0;endSize=1;startSize=2;strokeWidth=1;" edge="1" parent="1">
          <mxGeometry width="50" height="50" relative="1" as="geometry">
            <mxPoint x="810" y="245" as="sourcePoint" />
            <mxPoint x="820" y="640" as="targetPoint" />
            <Array as="points">
              <mxPoint x="810" y="640" />
            </Array>
          </mxGeometry>
        </mxCell>
        <mxCell id="zoPng6HbuZyHixyTHXBz-32" value="" style="endArrow=none;html=1;rounded=1;jumpSize=1;curved=0;endSize=1;startSize=2;strokeWidth=1;" edge="1" parent="1">
          <mxGeometry width="50" height="50" relative="1" as="geometry">
            <mxPoint x="680" y="560" as="sourcePoint" />
            <mxPoint x="690" y="530" as="targetPoint" />
            <Array as="points">
              <mxPoint x="680" y="530" />
            </Array>
          </mxGeometry>
        </mxCell>
      </root>
    </mxGraphModel>
  </diagram>
</mxfile>
